<?xml version="1.0" encoding="UTF-8"?>
<svg xmlns="http://www.w3.org/2000/svg" xmlns:xlink="http://www.w3.org/1999/xlink" width="56px" height="81px" viewBox="0 0 56 80" version="1.1">
<g id="surface1">
<path style=" stroke:none;fill-rule:evenodd;fill:rgb(100%,65.490196%,14.509804%);fill-opacity:1;" d="M 26.902344 80 C 18.078125 80 9.984375 75.738281 4.699219 68.308594 C -5.722656 53.65625 5.214844 29.460938 5.683594 28.4375 C 6.066406 27.609375 7.3125 27.757812 7.480469 28.65625 C 7.800781 30.363281 8.902344 34.417969 10.6875 36.472656 C 10.578125 30.34375 11.425781 11.84375 24.550781 0.238281 C 25.003906 -0.160156 26.015625 -0.148438 26.140625 1.003906 C 26.484375 4.121094 28.035156 14.507812 33.679688 17.34375 C 34.234375 17.621094 39.492188 24.175781 40.40625 30.261719 C 41.328125 29.078125 42.601562 26.523438 43.183594 21.164062 C 43.273438 20.367188 44.269531 20.042969 44.824219 20.628906 C 45.023438 20.839844 64.605469 42.148438 50.949219 65.757812 C 45.792969 74.675781 36.804688 80 26.902344 80 Z M 26.902344 80 "/>
<path style=" stroke:none;fill-rule:evenodd;fill:rgb(100%,52.941176%,11.764706%);fill-opacity:1;" d="M 28.371094 73.398438 C 33.601562 73.398438 38.402344 70.871094 41.535156 66.46875 C 47.710938 57.785156 41.226562 43.441406 40.949219 42.835938 C 40.722656 42.34375 39.984375 42.429688 39.886719 42.964844 C 39.695312 43.976562 39.042969 46.378906 37.984375 47.597656 C 38.046875 43.964844 37.546875 32.996094 29.765625 26.117188 C 29.5 25.882812 28.898438 25.890625 28.824219 26.570312 C 28.621094 28.417969 27.699219 34.578125 24.355469 36.257812 C 24.027344 36.421875 20.910156 40.308594 20.367188 43.914062 C 19.820312 43.210938 19.066406 41.699219 18.71875 38.523438 C 18.667969 38.050781 18.074219 37.855469 17.75 38.203125 C 17.628906 38.332031 6.023438 50.960938 14.117188 64.957031 C 17.171875 70.242188 22.503906 73.398438 28.371094 73.398438 Z M 28.371094 73.398438 "/>
<path style=" stroke:none;fill-rule:evenodd;fill:rgb(100%,100%,100%);fill-opacity:1;" d="M 20.449219 67.953125 C 19.613281 67.953125 19.179688 66.945312 19.777344 66.351562 L 34.949219 51.347656 C 35.832031 50.472656 37.171875 51.804688 36.289062 52.675781 L 21.117188 67.679688 C 20.933594 67.863281 20.691406 67.953125 20.449219 67.953125 Z M 20.449219 67.953125 "/>
<path style=" stroke:none;fill-rule:evenodd;fill:rgb(100%,100%,100%);fill-opacity:1;" d="M 23.21875 58.695312 C 17.980469 58.695312 17.976562 50.8125 23.21875 50.8125 C 28.460938 50.8125 28.460938 58.695312 23.21875 58.695312 Z M 23.21875 52.683594 C 21.367188 52.683594 20.425781 54.914062 21.742188 56.214844 C 23.652344 58.105469 26.667969 55.242188 24.699219 53.289062 C 24.304688 52.898438 23.777344 52.683594 23.21875 52.683594 Z M 23.21875 52.683594 "/>
<path style=" stroke:none;fill-rule:evenodd;fill:rgb(100%,100%,100%);fill-opacity:1;" d="M 32.847656 68.21875 C 27.605469 68.21875 27.605469 60.332031 32.847656 60.332031 C 38.089844 60.332031 38.089844 68.21875 32.847656 68.21875 Z M 32.847656 62.207031 C 30.996094 62.207031 30.054688 64.433594 31.367188 65.734375 C 33.28125 67.628906 36.296875 64.761719 34.324219 62.8125 C 33.929688 62.421875 33.40625 62.207031 32.847656 62.207031 Z M 32.847656 62.207031 "/>
</g>
</svg>
