<svg width="117" height="171" viewBox="0 0 117 171" fill="none" xmlns="http://www.w3.org/2000/svg">
<path fill-rule="evenodd" clip-rule="evenodd" d="M56.1918 170.417C37.612 170.417 20.5739 161.347 9.44602 145.532C-12.4975 114.346 10.5317 62.8391 11.5215 60.6609C12.3238 58.8957 14.9451 59.211 15.3003 61.1249C15.9719 64.756 18.2919 73.3863 22.0487 77.7648C21.8242 64.7171 23.6063 25.3334 51.2355 0.633864C52.1894 -0.21829 54.3198 -0.191348 54.5872 2.26034C55.3067 8.89397 58.5766 31.0081 70.4599 37.039C71.6283 37.6337 82.6924 51.5885 84.6202 64.5385C86.559 62.0189 89.2432 56.5837 90.4695 45.1794C90.6521 43.4811 92.7566 42.7866 93.9181 44.0349C94.3382 44.4869 135.57 89.8446 106.819 140.105C95.9626 159.088 77.0366 170.417 56.1908 170.417H56.1918Z" fill="#FFA725"/>
</svg>
