<svg width="36" height="52" viewBox="0 0 36 52" fill="none" xmlns="http://www.w3.org/2000/svg">
<path fill-rule="evenodd" clip-rule="evenodd" d="M17.295 51.9991C11.6216 51.9991 6.41909 49.2295 3.0212 44.4005C-3.67921 34.8777 3.3527 19.1503 3.65495 18.4852C3.89992 17.9462 4.70034 18.0424 4.80881 18.6268C5.01386 19.7356 5.72226 22.3709 6.86942 23.7078C6.80086 19.7237 7.34504 7.69796 15.7816 0.156C16.0728 -0.104204 16.7234 -0.0959776 16.805 0.652642C17.0247 2.67821 18.0232 9.43072 21.6517 11.2723C22.0085 11.4539 25.3869 15.7149 25.9755 19.6692C26.5675 18.8998 27.3872 17.2402 27.7616 13.7579C27.8174 13.2393 28.46 13.0273 28.8146 13.4084C28.9429 13.5465 41.5329 27.3964 32.7539 42.7433C29.4389 48.5396 23.6599 51.9991 17.2946 51.9991H17.295Z" fill="#FFA725"/>
<path fill-rule="evenodd" clip-rule="evenodd" d="M18.2389 47.7091C21.602 47.7091 24.6861 46.0674 26.7004 43.2049C30.6723 37.5596 26.5039 28.2367 26.3247 27.8425C26.1794 27.5228 25.705 27.5801 25.6407 27.9265C25.5191 28.5838 25.0993 30.1459 24.4192 30.9384C24.4597 28.5764 24.1374 21.448 19.1362 16.977C18.9634 16.8228 18.578 16.8277 18.5296 17.2713C18.3992 18.4721 17.8075 22.4748 15.6564 23.5665C15.4449 23.674 13.4422 26.2002 13.093 28.5442C12.742 28.088 12.256 27.1042 12.0342 25.0399C12.001 24.7325 11.6201 24.6067 11.4102 24.8327C11.334 24.9147 3.87099 33.1248 9.07507 42.2222C11.0403 45.6582 14.4659 47.7091 18.2395 47.7091H18.2389Z" fill="#FF871E"/>
<path fill-rule="evenodd" clip-rule="evenodd" d="M13.1451 44.1701C12.6079 44.1701 12.3288 43.5144 12.7143 43.1296L22.467 33.3765C23.0353 32.8083 23.8963 33.6718 23.3293 34.2385L13.5762 43.9916C13.4571 44.1107 13.3014 44.1701 13.1451 44.1701Z" fill="white"/>
<path fill-rule="evenodd" clip-rule="evenodd" d="M14.9269 38.1522C11.558 38.1522 11.5558 33.027 14.9263 33.027C18.2971 33.027 18.2955 38.1522 14.9269 38.1522ZM14.9269 34.2449C13.7371 34.2449 13.1311 35.6934 13.9763 36.5392C15.2057 37.7689 17.1444 35.907 15.8772 34.6388C15.6234 34.3844 15.2861 34.2449 14.9269 34.2449Z" fill="white"/>
<path fill-rule="evenodd" clip-rule="evenodd" d="M21.116 44.341C17.7468 44.341 17.7453 39.2162 21.116 39.2162C24.4865 39.2162 24.4862 44.341 21.116 44.341ZM21.116 40.434C19.9259 40.434 19.3205 41.8825 20.1657 42.7283C21.3948 43.9583 23.3336 42.0955 22.0667 40.828C21.8129 40.5736 21.475 40.434 21.116 40.434Z" fill="white"/>
</svg>
