<svg width="100" height="77" viewBox="0 0 100 77" fill="none" xmlns="http://www.w3.org/2000/svg">
<path fill-rule="evenodd" clip-rule="evenodd" d="M94.7623 69.93C94.3779 69.93 94.0029 69.7396 93.7803 69.3986L56.1617 69.064L46.9783 53.4452C46.1059 53.88 44.8326 52.9688 45.4015 51.8514L56.5701 29.908C56.9721 29.1175 58.0731 29.0478 58.5764 29.7703L69.895 46.0266L73.6573 45.9475L77.1079 39.0943C77.5298 38.2559 78.7146 38.2377 79.1728 39.0416L95.7783 68.1781C96.2254 68.962 95.6529 69.9294 94.7623 69.9294V69.93Z" fill="#AF6948"/>
<path fill-rule="evenodd" clip-rule="evenodd" d="M5.31682 69.93C4.48537 69.93 3.90119 69.0611 4.24572 68.2841L10.9002 53.2647C11.2114 52.5604 12.1108 52.3454 12.7085 52.8276L16.7344 56.0813L23.4645 39.4992C23.6444 39.058 24.0745 38.7686 24.5503 38.7686H28.9038L31.929 29.5951C32.2431 28.6423 33.5351 28.5041 34.0472 29.3607L57.2405 68.1564C58.0327 69.4818 56.0199 70.6829 55.2278 69.3599L54.9951 68.9702H6.50511C6.27835 69.4812 6.0135 69.93 5.31623 69.93H5.31682Z" fill="#C27550"/>
<path fill-rule="evenodd" clip-rule="evenodd" d="M98.8275 76.724H1.17188C0.525002 76.724 0 76.1984 0 75.5521V68.7581C0 68.1112 0.525002 67.5862 1.17188 67.5862H98.8275C99.4744 67.5862 99.9994 68.1118 99.9994 68.7581V75.5515C100 76.199 99.4744 76.724 98.8275 76.724Z" fill="#4A5254"/>
<path fill-rule="evenodd" clip-rule="evenodd" d="M47.685 20.3449C44.0375 20.3449 41.0703 17.3777 41.0703 13.7302C41.0703 10.0827 44.0375 7.11551 47.685 7.11551C51.3318 7.11551 54.2996 10.0827 54.2996 13.7302C54.2996 17.3777 51.3318 20.3449 47.685 20.3449Z" fill="#FFCC00"/>
<path fill-rule="evenodd" clip-rule="evenodd" d="M47.685 4.65749C46.1562 4.65749 46.5131 2.69342 46.5131 1.15708C46.5131 -0.385695 48.8568 -0.385695 48.8568 1.15708C48.8568 2.694 49.2137 4.65749 47.685 4.65749Z" fill="#FFA725"/>
<path fill-rule="evenodd" clip-rule="evenodd" d="M52.8067 6.03035C51.9178 6.03035 51.3377 5.06121 51.793 4.27253C52.5611 2.94245 53.2332 1.06451 54.558 1.8274C55.8823 2.5903 54.5908 4.11491 53.8221 5.44441C53.6047 5.82059 53.211 6.03035 52.8067 6.03035Z" fill="#FFA725"/>
<path fill-rule="evenodd" clip-rule="evenodd" d="M56.5573 9.78035C55.3672 9.78035 54.9342 8.19187 55.9701 7.59362C57.2985 6.82663 58.8231 5.53405 59.5871 6.85768C60.4913 8.42507 56.9176 9.77977 56.5567 9.77977L56.5573 9.78035Z" fill="#FFA725"/>
<path fill-rule="evenodd" clip-rule="evenodd" d="M60.2581 14.9021C58.7217 14.9021 56.7576 15.2589 56.7576 13.7302C56.7576 12.2015 58.7229 12.5583 60.2581 12.5583C61.8008 12.5583 61.8008 14.9021 60.2581 14.9021Z" fill="#FFA725"/>
<path fill-rule="evenodd" clip-rule="evenodd" d="M58.5723 21.1886C58.0285 21.1886 56.6299 20.2476 55.9707 19.8667C54.633 19.0939 55.809 17.0677 57.1426 17.837C58.4762 18.6064 60.3524 19.279 59.5877 20.6021C59.3709 20.9783 58.9766 21.188 58.5723 21.188V21.1886Z" fill="#FFA725"/>
<path fill-rule="evenodd" clip-rule="evenodd" d="M53.9721 25.7918C52.9877 25.7918 52.5283 24.4664 51.7918 23.1896C51.0201 21.8525 53.051 20.6829 53.8215 22.0177C54.5856 23.3414 55.8834 24.8736 54.5574 25.6347C54.3729 25.7408 54.1719 25.7918 53.9727 25.7918H53.9721Z" fill="#FFA725"/>
<path fill-rule="evenodd" clip-rule="evenodd" d="M47.685 27.4746C46.1562 27.4746 46.5131 25.5105 46.5131 23.9742C46.5131 22.4314 48.8568 22.4314 48.8568 23.9742C48.8568 25.5123 49.2137 27.4746 47.685 27.4746Z" fill="#FFA725"/>
<path fill-rule="evenodd" clip-rule="evenodd" d="M41.3972 25.7918C40.5095 25.7918 39.9283 24.8232 40.3841 24.0339C41.1523 22.7033 41.8244 20.8242 43.1486 21.5888C44.4717 22.3529 43.1844 23.8722 42.4133 25.2058C42.1965 25.5814 41.8021 25.7918 41.3972 25.7918Z" fill="#FFA725"/>
<path fill-rule="evenodd" clip-rule="evenodd" d="M36.7976 21.1886C35.6064 21.1886 35.1746 19.5995 36.2099 19.0019C37.5371 18.2366 39.0634 16.9411 39.8269 18.2659C40.731 19.8351 37.155 21.188 36.7976 21.188V21.1886Z" fill="#FFA725"/>
<path fill-rule="evenodd" clip-rule="evenodd" d="M37.4404 14.9021C35.904 14.9021 33.94 15.2589 33.94 13.7302C33.94 12.2015 35.904 12.5583 37.4404 12.5583C38.9832 12.5583 38.9832 14.9021 37.4404 14.9021Z" fill="#FFA725"/>
<path fill-rule="evenodd" clip-rule="evenodd" d="M38.8115 9.78036C38.2672 9.78036 36.8697 8.83934 36.2099 8.45848C34.8751 7.68797 36.0441 5.65652 37.3818 6.42879C38.7148 7.19812 40.5904 7.86961 39.8269 9.19384C39.6107 9.56942 39.2158 9.77978 38.8115 9.77978V9.78036Z" fill="#FFA725"/>
<path fill-rule="evenodd" clip-rule="evenodd" d="M42.5633 6.03036C41.5783 6.03036 41.1201 4.70555 40.383 3.42703C39.6125 2.0905 41.641 0.919208 42.4121 2.25515C43.1855 3.5952 44.4681 5.10458 43.1474 5.87216C42.9635 5.97938 42.7619 6.03036 42.5633 6.03036Z" fill="#FFA725"/>
<path fill-rule="evenodd" clip-rule="evenodd" d="M31.3068 43.8287C33.7994 40.8686 35.2841 41.2787 41.9732 42.617L34.0478 29.3601C33.5357 28.5035 32.2437 28.6418 31.9296 29.5945L28.9044 38.768H24.5509C24.0745 38.768 23.645 39.0574 23.4651 39.4986L22.1058 42.8485C27.4982 41.5055 27.913 41.2178 31.3073 43.8287H31.3068Z" fill="#AF6948"/>
<path fill-rule="evenodd" clip-rule="evenodd" d="M50.8227 41.2026C54.7414 40.2311 55.4006 40.2568 58.4246 42.583C60.52 40.0945 61.9034 39.9879 66.2651 40.8123L58.5776 29.7703C58.0743 29.0478 56.9733 29.1175 56.5713 29.908L50.8227 41.2026Z" fill="#9E5F41"/>
</svg>
