<svg width="527" height="77" viewBox="0 0 527 77" fill="none" xmlns="http://www.w3.org/2000/svg">
<path d="M17.7887 16.9H48.4487C53.5587 16.9 57.2574 18.068 59.5447 20.404C61.8807 22.6913 63.0487 26.39 63.0487 31.5V38.8C63.0487 43.91 61.8807 47.633 59.5447 49.969C57.2574 52.2563 53.5587 53.4 48.4487 53.4H30.9287V68H17.7887V16.9ZM49.9087 31.5C49.9087 28.58 48.4487 27.12 45.5287 27.12H30.9287V43.18H45.5287C48.4487 43.18 49.9087 41.72 49.9087 38.8V31.5ZM80.2322 68H65.9972L85.3422 16.9H99.9422L119.287 68H105.052L101.767 58.875H83.5172L80.2322 68ZM86.8022 49.385H98.4822L92.6422 32.23L86.8022 49.385ZM117.089 16.9H130.959L143.004 41.72L155.049 16.9H168.919L149.574 54.495V68H136.434V54.495L117.089 16.9ZM209.097 30.77C209.097 27.85 207.637 26.39 204.717 26.39H192.307C189.387 26.39 187.927 27.85 187.927 30.77V54.13C187.927 57.05 189.387 58.51 192.307 58.51H204.717C207.637 58.51 209.097 57.05 209.097 54.13V30.77ZM222.237 54.13C222.237 59.24 221.069 62.963 218.733 65.299C216.446 67.5863 212.747 68.73 207.637 68.73H189.387C184.277 68.73 180.554 67.5863 178.218 65.299C175.931 62.963 174.787 59.24 174.787 54.13V30.77C174.787 25.66 175.931 21.9613 178.218 19.674C180.554 17.338 184.277 16.17 189.387 16.17H207.637C212.747 16.17 216.446 17.338 218.733 19.674C221.069 21.9613 222.237 25.66 222.237 30.77V54.13ZM279.211 39.53L268.991 57.78H258.771L248.551 39.53V68H235.411V16.9H249.281L263.881 43.91L278.481 16.9H292.351V68H279.211V39.53ZM316.105 68H301.87L321.215 16.9H335.815L355.16 68H340.925L337.64 58.875H319.39L316.105 68ZM322.675 49.385H334.355L328.515 32.23L322.675 49.385ZM409.177 68H395.307L377.787 37.34V68H364.647V16.9H378.517L396.037 47.56V16.9H409.177V68Z" fill="white"/>
<path d="M17.7887 16.9V12.9H13.7887V16.9H17.7887ZM59.5447 20.404L56.6867 23.2025L56.7161 23.2326L56.7462 23.262L59.5447 20.404ZM59.5447 49.969L62.3731 52.7974H62.3731L59.5447 49.969ZM30.9287 53.4V49.4H26.9287V53.4H30.9287ZM30.9287 68V72H34.9287V68H30.9287ZM17.7887 68H13.7887V72H17.7887V68ZM30.9287 27.12V23.12H26.9287V27.12H30.9287ZM30.9287 43.18H26.9287V47.18H30.9287V43.18ZM17.7887 20.9H48.4487V12.9H17.7887V20.9ZM48.4487 20.9C53.0735 20.9 55.4832 21.9734 56.6867 23.2025L62.4028 17.6055C59.0316 14.1626 54.0439 12.9 48.4487 12.9V20.9ZM56.7462 23.262C57.9753 24.4656 59.0487 26.8752 59.0487 31.5H67.0487C67.0487 25.9048 65.7861 20.9171 62.3432 17.546L56.7462 23.262ZM59.0487 31.5V38.8H67.0487V31.5H59.0487ZM59.0487 38.8C59.0487 43.4153 57.9793 45.8776 56.7163 47.1406L62.3731 52.7974C65.7821 49.3884 67.0487 44.4047 67.0487 38.8H59.0487ZM56.7163 47.1406C55.515 48.3419 53.0928 49.4 48.4487 49.4V57.4C54.0246 57.4 58.9998 56.1708 62.3731 52.7974L56.7163 47.1406ZM48.4487 49.4H30.9287V57.4H48.4487V49.4ZM26.9287 53.4V68H34.9287V53.4H26.9287ZM30.9287 64H17.7887V72H30.9287V64ZM21.7887 68V16.9H13.7887V68H21.7887ZM53.9087 31.5C53.9087 29.4234 53.3869 27.1313 51.6421 25.3866C49.8974 23.6419 47.6053 23.12 45.5287 23.12V31.12C45.9373 31.12 46.132 31.1725 46.18 31.1885C46.2087 31.198 46.1089 31.1671 45.9853 31.0434C45.8616 30.9198 45.8307 30.82 45.8402 30.8487C45.8562 30.8967 45.9087 31.0914 45.9087 31.5H53.9087ZM45.5287 23.12H30.9287V31.12H45.5287V23.12ZM26.9287 27.12V43.18H34.9287V27.12H26.9287ZM30.9287 47.18H45.5287V39.18H30.9287V47.18ZM45.5287 47.18C47.6053 47.18 49.8974 46.6581 51.6421 44.9134C53.3869 43.1687 53.9087 40.8766 53.9087 38.8H45.9087C45.9087 39.2086 45.8562 39.4033 45.8402 39.4513C45.8307 39.48 45.8616 39.3802 45.9853 39.2566C46.1089 39.1329 46.2087 39.102 46.18 39.1115C46.132 39.1275 45.9373 39.18 45.5287 39.18V47.18ZM53.9087 38.8V31.5H45.9087V38.8H53.9087ZM80.2322 68V72H83.0435L83.9958 69.3549L80.2322 68ZM65.9972 68L62.2563 66.5838L60.2059 72H65.9972V68ZM85.3422 16.9V12.9H82.5795L81.6013 15.4838L85.3422 16.9ZM99.9422 16.9L103.683 15.4838L102.705 12.9H99.9422V16.9ZM119.287 68V72H125.079L123.028 66.5838L119.287 68ZM105.052 68L101.289 69.3549L102.241 72H105.052V68ZM101.767 58.875L105.531 57.5201L104.579 54.875H101.767V58.875ZM83.5172 58.875V54.875H80.7059L79.7537 57.5201L83.5172 58.875ZM86.8022 49.385L83.0156 48.0959L81.2151 53.385H86.8022V49.385ZM98.4822 49.385V53.385H104.069L102.269 48.0959L98.4822 49.385ZM92.6422 32.23L96.4288 30.9409L92.6422 19.8178L88.8556 30.9409L92.6422 32.23ZM80.2322 64H65.9972V72H80.2322V64ZM69.7381 69.4162L89.0831 18.3162L81.6013 15.4838L62.2563 66.5838L69.7381 69.4162ZM85.3422 20.9H99.9422V12.9H85.3422V20.9ZM96.2013 18.3162L115.546 69.4162L123.028 66.5838L103.683 15.4838L96.2013 18.3162ZM119.287 64H105.052V72H119.287V64ZM108.816 66.6451L105.531 57.5201L98.0037 60.2299L101.289 69.3549L108.816 66.6451ZM101.767 54.875H83.5172V62.875H101.767V54.875ZM79.7537 57.5201L76.4687 66.6451L83.9958 69.3549L87.2808 60.2299L79.7537 57.5201ZM86.8022 53.385H98.4822V45.385H86.8022V53.385ZM102.269 48.0959L96.4288 30.9409L88.8556 33.5191L94.6956 50.6741L102.269 48.0959ZM88.8556 30.9409L83.0156 48.0959L90.5888 50.6741L96.4288 33.5191L88.8556 30.9409ZM117.089 16.9V12.9H110.532L113.532 18.7302L117.089 16.9ZM130.959 16.9L134.557 15.1536L133.464 12.9H130.959V16.9ZM143.004 41.72L139.405 43.4664L143.004 50.8817L146.602 43.4664L143.004 41.72ZM155.049 16.9V12.9H152.544L151.45 15.1536L155.049 16.9ZM168.919 16.9L172.475 18.7302L175.475 12.9H168.919V16.9ZM149.574 54.495L146.017 52.6648L145.574 53.5262V54.495H149.574ZM149.574 68V72H153.574V68H149.574ZM136.434 68H132.434V72H136.434V68ZM136.434 54.495H140.434V53.5262L139.99 52.6648L136.434 54.495ZM117.089 20.9H130.959V12.9H117.089V20.9ZM127.36 18.6464L139.405 43.4664L146.602 39.9736L134.557 15.1536L127.36 18.6464ZM146.602 43.4664L158.647 18.6464L151.45 15.1536L139.405 39.9736L146.602 43.4664ZM155.049 20.9H168.919V12.9H155.049V20.9ZM165.362 15.0698L146.017 52.6648L153.13 56.3252L172.475 18.7302L165.362 15.0698ZM145.574 54.495V68H153.574V54.495H145.574ZM149.574 64H136.434V72H149.574V64ZM140.434 68V54.495H132.434V68H140.434ZM139.99 52.6648L120.645 15.0698L113.532 18.7302L132.877 56.3252L139.99 52.6648ZM218.733 65.299L215.905 62.4706H215.905L218.733 65.299ZM178.218 65.299L175.36 68.0975L175.39 68.1276L175.42 68.157L178.218 65.299ZM178.218 19.674L175.39 16.8456V16.8456L178.218 19.674ZM218.733 19.674L215.875 22.4725L215.905 22.5026L215.935 22.532L218.733 19.674ZM213.097 30.77C213.097 28.6934 212.575 26.4013 210.831 24.6566C209.086 22.9118 206.794 22.39 204.717 22.39V30.39C205.126 30.39 205.32 30.4425 205.369 30.4585C205.397 30.468 205.297 30.4371 205.174 30.3134C205.05 30.1898 205.019 30.09 205.029 30.1187C205.045 30.1667 205.097 30.3614 205.097 30.77H213.097ZM204.717 22.39H192.307V30.39H204.717V22.39ZM192.307 22.39C190.231 22.39 187.938 22.9118 186.194 24.6566C184.449 26.4013 183.927 28.6934 183.927 30.77H191.927C191.927 30.3614 191.98 30.1667 191.996 30.1187C192.005 30.09 191.974 30.1898 191.851 30.3134C191.727 30.4371 191.627 30.468 191.656 30.4585C191.704 30.4425 191.899 30.39 192.307 30.39V22.39ZM183.927 30.77V54.13H191.927V30.77H183.927ZM183.927 54.13C183.927 56.2066 184.449 58.4987 186.194 60.2434C187.938 61.9881 190.231 62.51 192.307 62.51V54.51C191.899 54.51 191.704 54.4575 191.656 54.4415C191.627 54.432 191.727 54.4629 191.851 54.5866C191.974 54.7102 192.005 54.81 191.996 54.7813C191.98 54.7333 191.927 54.5386 191.927 54.13H183.927ZM192.307 62.51H204.717V54.51H192.307V62.51ZM204.717 62.51C206.794 62.51 209.086 61.9881 210.831 60.2434C212.575 58.4987 213.097 56.2066 213.097 54.13H205.097C205.097 54.5386 205.045 54.7333 205.029 54.7813C205.019 54.81 205.05 54.7102 205.174 54.5866C205.297 54.4629 205.397 54.432 205.369 54.4415C205.32 54.4575 205.126 54.51 204.717 54.51V62.51ZM213.097 54.13V30.77H205.097V54.13H213.097ZM218.237 54.13C218.237 58.7453 217.168 61.2076 215.905 62.4706L221.562 68.1274C224.971 64.7184 226.237 59.7347 226.237 54.13H218.237ZM215.905 62.4706C214.703 63.6719 212.281 64.73 207.637 64.73V72.73C213.213 72.73 218.188 71.5008 221.562 68.1274L215.905 62.4706ZM207.637 64.73H189.387V72.73H207.637V64.73ZM189.387 64.73C184.753 64.73 182.278 63.6759 181.017 62.441L175.42 68.157C178.83 71.4967 183.802 72.73 189.387 72.73V64.73ZM181.076 62.5005C179.841 61.2393 178.787 58.7643 178.787 54.13H170.787C170.787 59.7157 172.02 64.6867 175.36 68.0975L181.076 62.5005ZM178.787 54.13V30.77H170.787V54.13H178.787ZM178.787 30.77C178.787 26.1259 179.845 23.7037 181.047 22.5024L175.39 16.8456C172.016 20.219 170.787 25.1941 170.787 30.77H178.787ZM181.047 22.5024C182.31 21.2394 184.772 20.17 189.387 20.17V12.17C183.782 12.17 178.799 13.4366 175.39 16.8456L181.047 22.5024ZM189.387 20.17H207.637V12.17H189.387V20.17ZM207.637 20.17C212.262 20.17 214.672 21.2434 215.875 22.4725L221.591 16.8755C218.22 13.4326 213.232 12.17 207.637 12.17V20.17ZM215.935 22.532C217.164 23.7355 218.237 26.1452 218.237 30.77H226.237C226.237 25.1748 224.975 20.1871 221.532 16.816L215.935 22.532ZM218.237 30.77V54.13H226.237V30.77H218.237ZM279.211 39.53H283.211V24.2005L275.721 37.5756L279.211 39.53ZM268.991 57.78V61.78H271.336L272.481 59.7344L268.991 57.78ZM258.771 57.78L255.281 59.7344L256.427 61.78H258.771V57.78ZM248.551 39.53L252.041 37.5756L244.551 24.2005V39.53H248.551ZM248.551 68V72H252.551V68H248.551ZM235.411 68H231.411V72H235.411V68ZM235.411 16.9V12.9H231.411V16.9H235.411ZM249.281 16.9L252.8 14.9979L251.666 12.9H249.281V16.9ZM263.881 43.91L260.363 45.8121L263.881 52.3219L267.4 45.8121L263.881 43.91ZM278.481 16.9V12.9H276.097L274.963 14.9979L278.481 16.9ZM292.351 16.9H296.351V12.9H292.351V16.9ZM292.351 68V72H296.351V68H292.351ZM279.211 68H275.211V72H279.211V68ZM275.721 37.5756L265.501 55.8256L272.481 59.7344L282.701 41.4844L275.721 37.5756ZM268.991 53.78H258.771V61.78H268.991V53.78ZM262.261 55.8256L252.041 37.5756L245.061 41.4844L255.281 59.7344L262.261 55.8256ZM244.551 39.53V68H252.551V39.53H244.551ZM248.551 64H235.411V72H248.551V64ZM239.411 68V16.9H231.411V68H239.411ZM235.411 20.9H249.281V12.9H235.411V20.9ZM245.763 18.8021L260.363 45.8121L267.4 42.0079L252.8 14.9979L245.763 18.8021ZM267.4 45.8121L282 18.8021L274.963 14.9979L260.363 42.0079L267.4 45.8121ZM278.481 20.9H292.351V12.9H278.481V20.9ZM288.351 16.9V68H296.351V16.9H288.351ZM292.351 64H279.211V72H292.351V64ZM283.211 68V39.53H275.211V68H283.211ZM316.105 68V72H318.916L319.868 69.3549L316.105 68ZM301.87 68L298.129 66.5838L296.079 72H301.87V68ZM321.215 16.9V12.9H318.452L317.474 15.4838L321.215 16.9ZM335.815 16.9L339.556 15.4838L338.578 12.9H335.815V16.9ZM355.16 68V72H360.951L358.901 66.5838L355.16 68ZM340.925 68L337.161 69.3549L338.114 72H340.925V68ZM337.64 58.875L341.403 57.5201L340.451 54.875H337.64V58.875ZM319.39 58.875V54.875H316.579L315.626 57.5201L319.39 58.875ZM322.675 49.385L318.888 48.0959L317.088 53.385H322.675V49.385ZM334.355 49.385V53.385H339.942L338.142 48.0959L334.355 49.385ZM328.515 32.23L332.302 30.9409L328.515 19.8178L324.728 30.9409L328.515 32.23ZM316.105 64H301.87V72H316.105V64ZM305.611 69.4162L324.956 18.3162L317.474 15.4838L298.129 66.5838L305.611 69.4162ZM321.215 20.9H335.815V12.9H321.215V20.9ZM332.074 18.3162L351.419 69.4162L358.901 66.5838L339.556 15.4838L332.074 18.3162ZM355.16 64H340.925V72H355.16V64ZM344.688 66.6451L341.403 57.5201L333.876 60.2299L337.161 69.3549L344.688 66.6451ZM337.64 54.875H319.39V62.875H337.64V54.875ZM315.626 57.5201L312.341 66.6451L319.868 69.3549L323.153 60.2299L315.626 57.5201ZM322.675 53.385H334.355V45.385H322.675V53.385ZM338.142 48.0959L332.302 30.9409L324.728 33.5191L330.568 50.6741L338.142 48.0959ZM324.728 30.9409L318.888 48.0959L326.462 50.6741L332.302 33.5191L324.728 30.9409ZM409.177 68V72H413.177V68H409.177ZM395.307 68L391.834 69.9846L392.986 72H395.307V68ZM377.787 37.34L381.26 35.3554L373.787 22.2777V37.34H377.787ZM377.787 68V72H381.787V68H377.787ZM364.647 68H360.647V72H364.647V68ZM364.647 16.9V12.9H360.647V16.9H364.647ZM378.517 16.9L381.99 14.9154L380.838 12.9H378.517V16.9ZM396.037 47.56L392.564 49.5446L400.037 62.6223V47.56H396.037ZM396.037 16.9V12.9H392.037V16.9H396.037ZM409.177 16.9H413.177V12.9H409.177V16.9ZM409.177 64H395.307V72H409.177V64ZM398.78 66.0154L381.26 35.3554L374.314 39.3246L391.834 69.9846L398.78 66.0154ZM373.787 37.34V68H381.787V37.34H373.787ZM377.787 64H364.647V72H377.787V64ZM368.647 68V16.9H360.647V68H368.647ZM364.647 20.9H378.517V12.9H364.647V20.9ZM375.044 18.8846L392.564 49.5446L399.51 45.5754L381.99 14.9154L375.044 18.8846ZM400.037 47.56V16.9H392.037V47.56H400.037ZM396.037 20.9H409.177V12.9H396.037V20.9ZM405.177 16.9V68H413.177V16.9H405.177Z" fill="#4A5254"/>
<path fill-rule="evenodd" clip-rule="evenodd" d="M521.762 69.93C521.378 69.93 521.003 69.7396 520.78 69.3986L483.162 69.064L473.978 53.4452C473.106 53.88 471.833 52.9688 472.402 51.8514L483.57 29.908C483.972 29.1175 485.073 29.0478 485.576 29.7703L496.895 46.0266L500.657 45.9475L504.108 39.0943C504.53 38.2559 505.715 38.2377 506.173 39.0416L522.778 68.1781C523.225 68.962 522.653 69.9294 521.762 69.9294V69.93Z" fill="#AF6948"/>
<path fill-rule="evenodd" clip-rule="evenodd" d="M432.317 69.93C431.485 69.93 430.901 69.0611 431.246 68.2841L437.9 53.2647C438.211 52.5604 439.111 52.3454 439.708 52.8276L443.734 56.0813L450.465 39.4992C450.644 39.058 451.075 38.7686 451.55 38.7686H455.904L458.929 29.5951C459.243 28.6423 460.535 28.5041 461.047 29.3607L484.24 68.1564C485.033 69.4818 483.02 70.6829 482.228 69.3599L481.995 68.9702H433.505C433.278 69.4812 433.014 69.93 432.316 69.93H432.317Z" fill="#C27550"/>
<path fill-rule="evenodd" clip-rule="evenodd" d="M525.828 76.724H428.172C427.525 76.724 427 76.1984 427 75.5521V68.7581C427 68.1112 427.525 67.5862 428.172 67.5862H525.828C526.474 67.5862 526.999 68.1118 526.999 68.7581V75.5515C527 76.199 526.474 76.724 525.828 76.724Z" fill="#4A5254"/>
<path fill-rule="evenodd" clip-rule="evenodd" d="M474.685 20.3449C471.037 20.3449 468.07 17.3777 468.07 13.7302C468.07 10.0827 471.037 7.11551 474.685 7.11551C478.332 7.11551 481.3 10.0827 481.3 13.7302C481.3 17.3777 478.332 20.3449 474.685 20.3449Z" fill="#FFCC00"/>
<path fill-rule="evenodd" clip-rule="evenodd" d="M474.685 4.65749C473.156 4.65749 473.513 2.69342 473.513 1.15708C473.513 -0.385695 475.857 -0.385695 475.857 1.15708C475.857 2.694 476.214 4.65749 474.685 4.65749Z" fill="#FFA725"/>
<path fill-rule="evenodd" clip-rule="evenodd" d="M479.807 6.03035C478.918 6.03035 478.338 5.06121 478.793 4.27253C479.561 2.94245 480.233 1.06451 481.558 1.8274C482.882 2.5903 481.591 4.11491 480.822 5.44441C480.605 5.82059 480.211 6.03035 479.807 6.03035Z" fill="#FFA725"/>
<path fill-rule="evenodd" clip-rule="evenodd" d="M483.557 9.78035C482.367 9.78035 481.934 8.19187 482.97 7.59362C484.298 6.82663 485.823 5.53405 486.587 6.85768C487.491 8.42507 483.918 9.77977 483.557 9.77977L483.557 9.78035Z" fill="#FFA725"/>
<path fill-rule="evenodd" clip-rule="evenodd" d="M487.258 14.9021C485.722 14.9021 483.758 15.2589 483.758 13.7302C483.758 12.2015 485.723 12.5583 487.258 12.5583C488.801 12.5583 488.801 14.9021 487.258 14.9021Z" fill="#FFA725"/>
<path fill-rule="evenodd" clip-rule="evenodd" d="M485.572 21.1886C485.029 21.1886 483.63 20.2476 482.971 19.8667C481.633 19.0939 482.809 17.0677 484.143 17.837C485.476 18.6064 487.352 19.279 486.588 20.6021C486.371 20.9783 485.977 21.188 485.572 21.188V21.1886Z" fill="#FFA725"/>
<path fill-rule="evenodd" clip-rule="evenodd" d="M480.972 25.7918C479.988 25.7918 479.528 24.4664 478.792 23.1896C478.02 21.8525 480.051 20.6829 480.821 22.0177C481.586 23.3414 482.883 24.8736 481.557 25.6347C481.373 25.7408 481.172 25.7918 480.973 25.7918H480.972Z" fill="#FFA725"/>
<path fill-rule="evenodd" clip-rule="evenodd" d="M474.685 27.4746C473.156 27.4746 473.513 25.5105 473.513 23.9742C473.513 22.4314 475.857 22.4314 475.857 23.9742C475.857 25.5123 476.214 27.4746 474.685 27.4746Z" fill="#FFA725"/>
<path fill-rule="evenodd" clip-rule="evenodd" d="M468.397 25.7918C467.51 25.7918 466.928 24.8232 467.384 24.0339C468.152 22.7033 468.824 20.8242 470.149 21.5888C471.472 22.3529 470.184 23.8722 469.413 25.2058C469.196 25.5814 468.802 25.7918 468.397 25.7918Z" fill="#FFA725"/>
<path fill-rule="evenodd" clip-rule="evenodd" d="M463.798 21.1886C462.606 21.1886 462.175 19.5995 463.21 19.0019C464.537 18.2366 466.063 16.9411 466.827 18.2659C467.731 19.8351 464.155 21.188 463.798 21.188V21.1886Z" fill="#FFA725"/>
<path fill-rule="evenodd" clip-rule="evenodd" d="M464.44 14.9021C462.904 14.9021 460.94 15.2589 460.94 13.7302C460.94 12.2015 462.904 12.5583 464.44 12.5583C465.983 12.5583 465.983 14.9021 464.44 14.9021Z" fill="#FFA725"/>
<path fill-rule="evenodd" clip-rule="evenodd" d="M465.811 9.78036C465.267 9.78036 463.87 8.83934 463.21 8.45848C461.875 7.68797 463.044 5.65652 464.382 6.42879C465.715 7.19812 467.59 7.86961 466.827 9.19384C466.611 9.56942 466.216 9.77978 465.811 9.77978V9.78036Z" fill="#FFA725"/>
<path fill-rule="evenodd" clip-rule="evenodd" d="M469.563 6.03036C468.578 6.03036 468.12 4.70555 467.383 3.42703C466.612 2.0905 468.641 0.919208 469.412 2.25515C470.186 3.5952 471.468 5.10458 470.147 5.87216C469.963 5.97938 469.762 6.03036 469.563 6.03036Z" fill="#FFA725"/>
<path fill-rule="evenodd" clip-rule="evenodd" d="M458.307 43.8287C460.799 40.8686 462.284 41.2787 468.973 42.617L461.048 29.3601C460.536 28.5035 459.244 28.6418 458.93 29.5945L455.904 38.768H451.551C451.075 38.768 450.645 39.0574 450.465 39.4986L449.106 42.8485C454.498 41.5055 454.913 41.2178 458.307 43.8287H458.307Z" fill="#AF6948"/>
<path fill-rule="evenodd" clip-rule="evenodd" d="M477.823 41.2026C481.741 40.2311 482.401 40.2568 485.425 42.583C487.52 40.0945 488.903 39.9879 493.265 40.8123L485.578 29.7703C485.074 29.0478 483.973 29.1175 483.571 29.908L477.823 41.2026Z" fill="#9E5F41"/>
</svg>
