<svg width="46" height="43" viewBox="0 0 46 43" fill="none" xmlns="http://www.w3.org/2000/svg">
<path d="M45.185 7.45876C45.0453 7.28102 44.8658 7.13698 44.6604 7.03769C44.455 6.9384 44.2291 6.88649 44 6.88595H9.695L7.9175 1.78204C7.81728 1.49151 7.6267 1.23897 7.37249 1.05986C7.11828 0.880746 6.81319 0.784036 6.5 0.783295H2C1.60218 0.783295 1.22064 0.938037 0.93934 1.21348C0.658035 1.48893 0.5 1.86251 0.5 2.25204C0.5 2.64158 0.658035 3.01516 0.93934 3.29061C1.22064 3.56605 1.60218 3.72079 2 3.72079H5.4275L15.29 32.1044C15.3915 32.3936 15.5826 32.6445 15.8367 32.8222C16.0908 32.9999 16.3952 33.0956 16.7075 33.0958H38C38.3978 33.0958 38.7794 32.9411 39.0607 32.6656C39.342 32.3902 39.5 32.0166 39.5 31.627C39.5 31.2375 39.342 30.8639 39.0607 30.5885C38.7794 30.313 38.3978 30.1583 38 30.1583H17.75L16.655 26.9931H39.5C39.831 26.9946 40.1532 26.8887 40.4164 26.6921C40.6796 26.4955 40.8689 26.2192 40.955 25.9063L45.455 8.73658C45.5136 8.51762 45.5197 8.28836 45.4729 8.0667C45.426 7.84504 45.3275 7.63698 45.185 7.45876ZM38.3375 24.0556H15.665L10.715 9.82345H42.065L38.3375 24.0556Z" fill="#FFA725"/>
<path d="M21.5 34.3442C16.19 34.5058 16.19 42.0478 21.5 42.2167C26.81 42.0625 26.81 34.5058 21.5 34.3442ZM21.5 39.2792C21.2295 39.2792 20.97 39.174 20.7787 38.9867C20.5874 38.7994 20.48 38.5454 20.48 38.2805C20.48 38.0156 20.5874 37.7616 20.7787 37.5743C20.97 37.387 21.2295 37.2817 21.5 37.2817C21.7705 37.2817 22.0299 37.387 22.2212 37.5743C22.4125 37.7616 22.52 38.0156 22.52 38.2805C22.52 38.5454 22.4125 38.7994 22.2212 38.9867C22.0299 39.174 21.7705 39.2792 21.5 39.2792Z" fill="#FFA725"/>
<path d="M34.5575 34.3442C29.2475 34.5058 29.2475 42.0478 34.5575 42.2167C39.8675 42.0625 39.8675 34.5058 34.5575 34.3442ZM34.5575 39.2792C34.287 39.2792 34.0275 39.174 33.8363 38.9867C33.645 38.7994 33.5375 38.5454 33.5375 38.2805C33.5375 38.0156 33.645 37.7616 33.8363 37.5743C34.0275 37.387 34.287 37.2817 34.5575 37.2817C34.828 37.2817 35.0875 37.387 35.2788 37.5743C35.47 37.7616 35.5775 38.0156 35.5775 38.2805C35.5775 38.5454 35.47 38.7994 35.2788 38.9867C35.0875 39.174 34.828 39.2792 34.5575 39.2792Z" fill="#FFA725"/>
</svg>
