<svg width="35" height="32" viewBox="0 0 35 32" fill="none" xmlns="http://www.w3.org/2000/svg">
<path d="M34.0127 5.0562C33.9064 4.92157 33.7698 4.81247 33.6134 4.73726C33.4571 4.66206 33.2851 4.62274 33.1108 4.62233H6.99893L5.64596 0.756483C5.56967 0.536422 5.42461 0.345145 5.23111 0.209479C5.03761 0.0738126 4.80539 0.000561762 4.567 0H1.14175C0.838939 0 0.548531 0.117207 0.334411 0.325836C0.120291 0.534466 0 0.817428 0 1.11247C0 1.40752 0.120291 1.69048 0.334411 1.89911C0.548531 2.10774 0.838939 2.22495 1.14175 2.22495H3.75065L11.2577 23.7235C11.3349 23.9425 11.4804 24.1326 11.6738 24.2672C11.8672 24.4018 12.0989 24.4743 12.3366 24.4744H28.5438C28.8466 24.4744 29.137 24.3572 29.3511 24.1486C29.5652 23.94 29.6855 23.657 29.6855 23.362C29.6855 23.0669 29.5652 22.784 29.3511 22.5753C29.137 22.3667 28.8466 22.2495 28.5438 22.2495H13.1301L12.2967 19.8521H29.6855C29.9375 19.8532 30.1827 19.773 30.383 19.6241C30.5834 19.4752 30.7275 19.2659 30.793 19.0289L34.2183 6.02405C34.2629 5.8582 34.2675 5.68456 34.2319 5.51667C34.1962 5.34878 34.1212 5.19119 34.0127 5.0562ZM28.8007 17.6272H11.5431L7.77532 6.84728H31.6379L28.8007 17.6272Z" fill="white"/>
<path d="M15.9844 25.4201C11.9426 25.5425 11.9426 31.2551 15.9844 31.383C20.0262 31.2662 20.0262 25.5425 15.9844 25.4201ZM15.9844 29.158C15.7785 29.158 15.5811 29.0783 15.4355 28.9365C15.2898 28.7946 15.2081 28.6022 15.2081 28.4016C15.2081 28.2009 15.2898 28.0085 15.4355 27.8667C15.5811 27.7248 15.7785 27.6451 15.9844 27.6451C16.1904 27.6451 16.3878 27.7248 16.5334 27.8667C16.679 28.0085 16.7608 28.2009 16.7608 28.4016C16.7608 28.6022 16.679 28.7946 16.5334 28.9365C16.3878 29.0783 16.1904 29.158 15.9844 29.158Z" fill="white"/>
<path d="M25.9234 25.4201C21.8816 25.5425 21.8816 31.2551 25.9234 31.383C29.9652 31.2662 29.9652 25.5425 25.9234 25.4201ZM25.9234 29.158C25.7175 29.158 25.52 29.0783 25.3744 28.9365C25.2288 28.7946 25.147 28.6022 25.147 28.4016C25.147 28.2009 25.2288 28.0085 25.3744 27.8667C25.52 27.7248 25.7175 27.6451 25.9234 27.6451C26.1293 27.6451 26.3268 27.7248 26.4724 27.8667C26.618 28.0085 26.6998 28.2009 26.6998 28.4016C26.6998 28.6022 26.618 28.7946 26.4724 28.9365C26.3268 29.0783 26.1293 29.158 25.9234 29.158Z" fill="white"/>
</svg>
