<svg width="41" height="38" viewBox="0 0 41 38" fill="none" xmlns="http://www.w3.org/2000/svg">
<path d="M38.6482 29.5263H32.8422C31.3011 22.1579 21.7236 22.1579 20.1825 29.5263H1.35181C0.993286 29.5263 0.649449 29.6816 0.395935 29.9579C0.142422 30.2343 0 30.6092 0 31C0 31.3908 0.142422 31.7657 0.395935 32.0421C0.649449 32.3184 0.993286 32.4737 1.35181 32.4737H20.2028C21.7506 39.8421 31.3282 39.8421 32.8625 32.4737H38.6482C39.0067 32.4737 39.3506 32.3184 39.6041 32.0421C39.8576 31.7657 40 31.3908 40 31C40 30.6092 39.8576 30.2343 39.6041 29.9579C39.3506 29.6816 39.0067 29.5263 38.6482 29.5263ZM26.536 35.1116C21.5478 34.92 21.5478 27.08 26.536 26.8884C31.5242 27.08 31.5242 34.92 26.536 35.1116Z" fill="#4C2409"/>
<path d="M34.7834 18.7368H15.8831C14.4961 12.4211 5.87631 12.4211 4.48935 18.7368H1.21663C0.893957 18.7368 0.584504 18.8699 0.356342 19.1068C0.12818 19.3437 0 19.665 0 20C0 20.335 0.12818 20.6563 0.356342 20.8932C0.584504 21.1301 0.893957 21.2632 1.21663 21.2632H4.48935C5.87631 27.5789 14.4961 27.5789 15.8831 21.2632H34.7834C35.106 21.2632 35.4155 21.1301 35.6437 20.8932C35.8718 20.6563 36 20.335 36 20C36 19.665 35.8718 19.3437 35.6437 19.1068C35.4155 18.8699 35.106 18.7368 34.7834 18.7368ZM10.1893 23.5242C5.6999 23.3726 5.70598 16.6211 10.1893 16.4758C14.6725 16.6274 14.6725 23.3789 10.1893 23.5242Z" fill="#4C2409"/>
<path d="M1.3856 8.47368H14.0084C15.595 15.8421 25.412 15.8421 26.9916 8.47368H39.6144C39.9819 8.47368 40.3343 8.31842 40.5942 8.04205C40.854 7.76568 41 7.39085 41 7C41 6.60915 40.854 6.23432 40.5942 5.95795C40.3343 5.68158 39.9819 5.52632 39.6144 5.52632H26.9916C25.405 -1.84211 15.588 -1.84211 14.0084 5.52632H1.3856C1.01812 5.52632 0.665685 5.68158 0.405834 5.95795C0.145983 6.23432 0 6.60915 0 7C0 7.39085 0.145983 7.76568 0.405834 8.04205C0.665685 8.31842 1.01812 8.47368 1.3856 8.47368ZM20.5 2.88842C25.6129 3.08 25.6129 10.92 20.5 11.1116C15.3871 10.92 15.3871 3.08 20.5 2.88842Z" fill="#4C2409"/>
</svg>
