<svg width="36" height="34" viewBox="0 0 36 34" fill="none" xmlns="http://www.w3.org/2000/svg">
<path d="M34.6933 31.3324L23.9264 21.198C26.1069 18.7887 27.2123 15.6787 27.0112 12.5195C26.81 9.3602 25.3178 6.39677 22.8472 4.2499C20.3766 2.10303 17.1193 0.939289 13.7575 1.00244C10.3957 1.0656 7.1903 2.35075 4.81265 4.58867C2.43504 6.82665 1.06969 9.84378 1.00259 13.0081C0.935501 16.1724 2.17187 19.2384 4.45273 21.5638C6.73359 23.8893 9.88195 25.2938 13.2384 25.4832C16.5948 25.6725 19.8989 24.632 22.4585 22.5797L33.2254 32.7141C33.4202 32.8972 33.6842 33 33.9594 33C34.2346 33 34.4986 32.8972 34.6933 32.7141C34.7905 32.6238 34.8676 32.5162 34.9202 32.3976C34.9729 32.2791 35 32.1518 35 32.0232C35 31.8947 34.9729 31.7675 34.9202 31.6489C34.8676 31.5303 34.7905 31.4227 34.6933 31.3324ZM3.14734 13.286C3.14734 11.2558 3.78692 9.27124 4.98526 7.58319C6.18354 5.89513 7.88672 4.57948 9.87939 3.80255C11.8721 3.02563 14.0648 2.82235 16.1803 3.21847C18.2957 3.61453 20.2389 4.59213 21.764 6.0277C23.2891 7.46327 24.3278 9.29222 24.7486 11.2834C25.1694 13.2746 24.9534 15.3385 24.128 17.2141C23.3026 19.0898 21.9048 20.6929 20.1114 21.8208C18.3181 22.9487 16.2096 23.5507 14.0527 23.5507C11.1616 23.5473 8.38989 22.4648 6.34549 20.5405C4.30117 18.6162 3.15101 16.0073 3.14734 13.286Z" fill="#4C2409" stroke="#4C2409"/>
</svg>
