<svg width="106" height="48" viewBox="0 0 106 48" fill="none" xmlns="http://www.w3.org/2000/svg">
<path d="M96.8716 14.5318C96.9533 16.8281 97.9486 17.9504 99.6909 17.9504C100.867 17.9504 102.235 17.2675 103.414 16.4727L104.042 17.623C102.782 18.9155 100.292 20.3565 97.9402 20.3565C95.3937 20.3565 93.6682 18.5795 93.6682 15.2965C93.6682 10.4023 97.5453 6.19098 101.936 6.19098C104.234 6.19098 105.3 7.36498 105.3 9.0064C105.294 12.2269 101.299 13.8683 96.8716 14.5318ZM100.484 8.24172C98.8707 8.24172 97.2825 10.3204 96.8716 13.082C100.157 12.5629 101.99 11.195 101.99 9.63545C101.983 8.7264 101.436 8.23526 100.477 8.23526L100.484 8.24172ZM101.473 28.0706C103.771 28.0706 104.84 29.2467 104.84 30.8882C104.84 34.1193 100.844 35.7544 96.4084 36.4114C96.4901 38.7098 97.4855 39.83 99.2278 39.83C100.404 39.83 101.774 39.1471 102.951 38.3544L103.58 39.5026C102.322 40.795 99.8316 42.2361 97.4771 42.2361C94.9331 42.2296 93.2093 40.4525 93.2093 37.1718C93.2093 32.2754 97.0872 28.0641 101.466 28.0641L101.473 28.0706ZM101.527 31.5171C101.527 30.6146 100.979 30.1213 100.019 30.1213C98.4051 30.1213 96.8177 32.2 96.4059 34.9616C99.6867 34.436 101.52 33.0681 101.52 31.5107L101.527 31.5171ZM86.3764 19.8848L82.792 20.2144L78.4126 8.36666C77.8868 8.26425 77.373 8.10835 76.8789 7.90136V6.50764H83.5847V7.87552C82.9912 8.09895 82.3773 8.26345 81.7516 8.36666L85.0905 17.666L88.4699 8.42695C87.8417 8.31711 87.0206 8.1534 86.5314 7.87982V6.51195H92.6063V7.90568C92.1027 8.13777 91.568 8.29454 91.0189 8.37096L86.3764 19.8848ZM73.1393 4.19195C72.7249 4.19152 72.3198 4.06824 71.9754 3.83767C71.6311 3.6071 71.3627 3.2796 71.2045 2.89657C71.0461 2.51355 71.0049 2.09219 71.0861 1.68575C71.1672 1.27931 71.3669 0.906046 71.6601 0.613137C71.9533 0.320226 72.3268 0.120816 72.7334 0.0401166C73.1399 -0.0405826 73.5612 0.00105261 73.9441 0.159755C74.3269 0.318457 74.6542 0.587103 74.8844 0.931739C75.1146 1.27637 75.2375 1.68152 75.2375 2.09597C75.2369 2.65206 75.0156 3.18517 74.6221 3.57818C74.2287 3.97119 73.6954 4.19195 73.1393 4.19195ZM74.1603 7.53085C74.1603 7.80443 74.1065 8.21372 74.0785 8.48733L72.6266 17.4033C72.7051 17.4889 72.7771 17.5804 72.842 17.6768H75.0867V18.7432C73.8221 19.4195 71.3148 20.348 70.3756 20.348C69.6109 20.348 69.2274 19.8568 69.2274 19.0361C69.2274 18.7884 69.3092 18.3252 69.3373 18.0775L70.787 9.16152L70.5716 8.88792H68.3313V7.82167C69.5893 7.1108 72.1355 6.18237 73.01 6.18237C73.805 6.18452 74.1603 6.70367 74.1603 7.5244V7.53085ZM60.5182 38.8951V30.4939H58.4934V28.5789H60.5182L62.1059 24.9686H63.5555V28.5789H67.7174V30.4939H63.5555V37.818C63.5555 39.2419 64.2406 39.8709 65.3909 39.8709C66.256 39.8515 67.1138 39.7064 67.9371 39.4401L68.2365 40.8058C66.9224 41.4089 64.8437 42.2275 63.2562 42.2275C61.3131 42.2296 60.5182 41.0557 60.5182 38.8951ZM58.502 17.0134V8.61221H56.4749V6.6972H58.502L60.0896 3.08687H61.5436V6.6972H65.7032V8.61221H61.5436V15.9363C61.5436 17.358 62.2286 17.987 63.3768 17.987C64.2419 17.9681 65.0997 17.8229 65.923 17.5562L66.2245 18.924C64.9105 19.5251 62.8296 20.3458 61.242 20.3458C59.2947 20.348 58.502 19.174 58.502 17.0134ZM54.1463 33.8609L53.5992 30.9894C52.996 30.662 51.9836 30.4164 50.7794 30.4164C48.5348 30.4164 46.9752 31.9243 46.9752 34.8195C46.9752 38.21 48.972 39.8515 51.9555 39.8515C53.3014 39.8251 54.6335 39.5754 55.8976 39.1126V41.0514C54.995 41.5964 52.7504 42.2253 50.6696 42.2253C46.1825 42.2253 43.9917 39.7653 43.9917 35.9352C43.9917 31.4224 47.195 28.0598 51.7639 28.0598C53.4872 28.0598 55.1308 28.5509 56.1712 29.2079C56.1461 30.705 55.9904 32.197 55.7059 33.6669L54.1463 33.8609ZM49.8381 20.3501C49.1272 20.3501 48.7717 19.9192 48.7717 19.174C48.7717 18.3274 49.9479 13.6766 49.9479 13.6766H49.6463C47.4922 18.4351 45.896 20.3544 43.8173 20.3544C42.0379 20.3544 40.5602 18.5213 40.5602 15.8157C40.5602 10.7836 44.4376 6.18883 48.4982 6.18883C49.2675 6.18257 50.0304 6.329 50.7427 6.61965C50.9571 6.1896 51.2887 5.82892 51.6992 5.57921L53.5733 5.9368L51.7682 17.4248L51.9836 17.6704H54.338V18.7646C53.4269 19.2558 50.8268 20.348 49.8402 20.348L49.8381 20.3501ZM47.4835 8.17925C45.2669 8.17925 43.7892 11.4104 43.7892 14.5253C43.7892 16.548 44.3106 17.7565 45.3229 17.7565C46.1157 17.7565 48.3883 13.9825 50.1396 8.84059C49.4568 8.39897 48.2526 8.17925 47.4857 8.17925H47.4835ZM39.4035 39.3043L39.6189 39.5499H41.9733V40.6442C41.0685 41.1375 38.4685 42.2296 37.484 42.2296C36.771 42.2296 36.407 41.7988 36.407 41.0557C36.407 40.2069 37.5853 35.5583 37.5853 35.5583H37.2838C35.1296 40.3168 33.5334 42.2361 31.4525 42.2361C29.6754 42.2361 28.1955 40.4051 28.1955 37.6973C28.1955 32.6653 32.0837 28.0706 36.1335 28.0706C36.9027 28.0653 37.6654 28.2116 38.378 28.5014C38.5975 28.0668 38.9368 27.7042 39.356 27.4566L41.2172 27.812L39.4035 39.3043ZM35.1339 30.061C32.9173 30.061 31.4396 33.2921 31.4396 36.4049C31.4396 38.4297 31.9587 39.636 32.9712 39.636C33.7661 39.636 36.0365 35.8621 37.79 30.7201C37.1049 30.2785 35.9094 30.061 35.1339 30.061ZM30.0157 14.5318C30.0976 16.8281 31.0928 17.9504 32.8355 17.9504C34.0116 17.9504 35.3795 17.2675 36.5578 16.4727L37.1868 17.623C35.9267 18.9155 33.4365 20.3565 31.0841 20.3565C28.5379 20.3565 26.8125 18.5795 26.8125 15.2965C26.8125 10.4023 30.7007 6.19098 35.0801 6.19098C37.3785 6.19098 38.4448 7.36498 38.4448 9.0064C38.4448 12.2269 34.4489 13.8683 30.0157 14.5318ZM33.6282 8.24172C32.0147 8.24172 30.4271 10.3204 30.0157 13.082C33.3008 12.5629 35.1339 11.195 35.1339 9.63545C35.1339 8.7264 34.5868 8.23526 33.6282 8.23526V8.24172ZM26.735 31.543H25.4424C24.8088 31.5321 24.1816 31.6701 23.611 31.9459C23.0405 32.2216 22.5426 32.6274 22.1574 33.1306V39.9678C23.1298 40.0366 24.088 40.2389 25.0052 40.5688V41.9367H17.0973V40.5408C17.758 40.2734 18.4467 40.0813 19.1502 39.9678V31.2091C18.3992 31.0595 17.6951 30.7315 17.0973 30.2526V29.1756L21.4487 28.1093H22.0238L21.8084 31.6098H21.9721C22.9846 29.2036 24.2168 28.1373 26.0499 28.1373C26.4538 28.1207 26.8563 28.1943 27.2283 28.3528L26.735 31.543ZM23.5619 9.65701C22.9286 9.64623 22.3015 9.78408 21.731 10.0594C21.1605 10.3347 20.6625 10.7399 20.2769 11.2424V18.0797C21.2484 18.1505 22.2057 18.3533 23.1224 18.6828V20.0507H15.2125V18.6548C15.8734 18.3878 16.5619 18.1949 17.2653 18.0797V9.3296C16.5141 9.17928 15.81 8.85044 15.2125 8.37096V7.30467L19.566 6.23837H20.139L19.9236 9.73886H20.0873C21.0997 7.33267 22.3319 6.26638 24.1651 6.26638C24.5689 6.25076 24.9712 6.3243 25.3434 6.48179L24.8501 9.65482L23.5619 9.65701ZM7.66441 42.2856C6.81528 42.2909 5.97491 42.1139 5.20008 41.7665V45.7043C6.01469 45.7983 6.81476 45.9914 7.58255 46.2794V47.6732H0V46.2794C0.666149 45.9994 1.3655 45.8061 2.08089 45.7043V31.2091C1.39588 31.0712 0.465291 30.662 0.0280015 30.2526V29.1756L4.45906 28.1179H5.00621V29.8692C5.88294 29.3221 7.71611 28.0641 10.0426 28.0641C12.8085 28.0641 14.9432 30.0028 14.9432 34.1085C14.9453 39.3043 11.6883 42.2856 7.66441 42.2856ZM7.93798 30.5521C6.97999 30.58 6.04204 30.8331 5.20008 31.2909V39.1126C6.14985 39.6845 7.24093 39.9785 8.34942 39.9613C10.7017 39.9613 11.9619 38.5655 11.9619 35.5303C11.9619 32.3034 10.2752 30.5521 7.93798 30.5521ZM10.3463 11.9813L9.79916 9.10981C9.19596 8.7824 8.18355 8.53465 6.97939 8.53465C4.73479 8.53465 3.17519 10.0426 3.17519 12.9399C3.17519 16.3305 5.17423 17.972 8.1577 17.972C9.50282 17.9453 10.8343 17.6957 12.0976 17.2331V19.1718C11.195 19.719 8.9504 20.348 6.86953 20.348C2.38248 20.348 0.191718 17.8858 0.191718 14.0579C0.191718 9.54501 3.39491 6.18237 7.96599 6.18237C9.68926 6.18237 11.3308 6.67351 12.3712 7.33053C12.3462 8.82686 12.1905 10.3181 11.9059 11.7875L10.3463 11.9813ZM72.1355 23.8786L74.505 21.5091L76.8746 23.8786L74.505 26.2482L72.1355 23.8786ZM74.617 28.0641C75.412 28.0641 75.7673 28.5832 75.7673 29.404C75.7673 29.6776 75.7113 30.0868 75.6855 30.3603L74.2336 39.2764C74.3116 39.3624 74.3836 39.4539 74.449 39.5499H76.6936V40.6162C75.4334 41.3012 72.9153 42.2296 71.9847 42.2296C71.22 42.2296 70.8365 41.7385 70.8365 40.9178C70.8365 40.6723 70.9184 40.2069 70.9464 39.9613L72.3961 31.0454L72.1807 30.7718H69.9448V29.7055C71.1963 28.9947 73.7425 28.0641 74.617 28.0641ZM86.4994 28.0641C88.2223 28.0641 89.8661 28.5552 90.907 29.2122C90.8817 30.7093 90.7259 32.2013 90.4413 33.6712L88.8817 33.8609L88.3326 30.9894C87.7314 30.662 86.7192 30.4164 85.515 30.4164C83.2702 30.4164 81.7085 31.9243 81.7085 34.8195C81.7085 38.21 83.7075 39.8515 86.6914 39.8515C88.0371 39.8249 89.3693 39.5752 90.6333 39.1126V41.0514C89.728 41.5964 87.4838 42.2253 85.4046 42.2253C80.9157 42.2253 78.7272 39.7653 78.7272 35.9352C78.7272 31.4267 81.9282 28.0641 86.4994 28.0641Z" fill="white"/>
</svg>
