<svg width="88" height="40" viewBox="0 0 88 40" fill="none" xmlns="http://www.w3.org/2000/svg">
<path d="M80.7263 12.1098C80.7944 14.0234 81.6239 14.9587 83.0758 14.9587C84.0561 14.9587 85.1958 14.3896 86.1782 13.7272L86.7018 14.6858C85.6519 15.7629 83.5768 16.9638 81.6168 16.9638C79.4947 16.9638 78.0568 15.4829 78.0568 12.7471C78.0568 8.66856 81.2877 5.15915 84.9467 5.15915C86.8618 5.15915 87.7502 6.13749 87.7502 7.50533C87.7453 10.1891 84.4154 11.5569 80.7263 12.1098ZM83.7368 6.8681C82.3923 6.8681 81.0688 8.60035 80.7263 10.9017C83.4639 10.4691 84.9916 9.32919 84.9916 8.02954C84.986 7.272 84.5298 6.86272 83.7312 6.86272L83.7368 6.8681ZM84.5607 23.3921C86.4758 23.3921 87.3663 24.3722 87.3663 25.7401C87.3663 28.4328 84.0365 29.7953 80.3404 30.3428C80.4084 32.2582 81.2379 33.1917 82.6898 33.1917C83.6702 33.1917 84.8119 32.6226 85.7923 31.962L86.3165 32.9188C85.2681 33.9959 83.193 35.1968 81.2309 35.1968C79.1109 35.1914 77.6744 33.7104 77.6744 30.9765C77.6744 26.8961 80.906 23.3867 84.5551 23.3867L84.5607 23.3921ZM84.6056 26.2643C84.6056 25.5121 84.1495 25.1011 83.3488 25.1011C82.0042 25.1011 80.6814 26.8333 80.3382 29.1347C83.0723 28.6966 84.6 27.5568 84.6 26.2589L84.6056 26.2643ZM71.9803 16.5707L68.9933 16.8453L65.3439 6.97222C64.9057 6.88688 64.4775 6.75695 64.0658 6.58447V5.42303H69.6539V6.56293C69.1594 6.74912 68.6477 6.88621 68.1263 6.97222L70.9088 14.7217L73.7249 7.02246C73.2014 6.93093 72.5172 6.7945 72.1095 6.56652V5.42662H77.1719V6.58806C76.7523 6.78147 76.3067 6.91212 75.8491 6.9758L71.9803 16.5707ZM60.9494 3.49329C60.6041 3.49293 60.2665 3.3902 59.9795 3.19806C59.6926 3.00592 59.4689 2.733 59.3371 2.41381C59.2051 2.09462 59.1707 1.74349 59.2384 1.40479C59.306 1.06609 59.4724 0.755039 59.7168 0.510947C59.9611 0.266855 60.2724 0.10068 60.6112 0.0334305C60.9499 -0.0338188 61.301 0.000877171 61.6201 0.133129C61.9391 0.265381 62.2118 0.489253 62.4037 0.776449C62.5955 1.06364 62.6979 1.40127 62.6979 1.74665C62.6974 2.21005 62.513 2.65431 62.1851 2.98182C61.8573 3.30933 61.4128 3.49329 60.9494 3.49329ZM61.8003 6.27571C61.8003 6.50369 61.7554 6.84477 61.7321 7.07277L60.5222 14.5027C60.5876 14.5741 60.6476 14.6503 60.7017 14.7307H62.5722V15.6193C61.5185 16.1829 59.429 16.9566 58.6463 16.9566C58.0091 16.9566 57.6895 16.5474 57.6895 15.8634C57.6895 15.657 57.7577 15.271 57.7811 15.0646L58.9892 7.6346L58.8097 7.4066H56.9427V6.51806C57.9911 5.92567 60.1129 5.15197 60.8417 5.15197C61.5041 5.15377 61.8003 5.58639 61.8003 6.27033V6.27571ZM50.4319 32.4126V25.4116H48.7445V23.8157H50.4319L51.7549 20.8072H52.9629V23.8157H56.4312V25.4116H52.9629V31.515C52.9629 32.7015 53.5338 33.2258 54.4924 33.2258C55.2133 33.2096 55.9281 33.0887 56.6142 32.8667L56.8637 34.0048C55.7687 34.5074 54.0364 35.1896 52.7135 35.1896C51.0942 35.1914 50.4319 34.2131 50.4319 32.4126ZM48.7516 14.1778V7.17684H47.0625V5.581H48.7516L50.0747 2.57239H51.2863V5.581H54.7527V7.17684H51.2863V13.2802C51.2863 14.465 51.8572 14.9892 52.814 14.9892C53.535 14.9734 54.2498 14.8524 54.9358 14.6302L55.1871 15.77C54.0921 16.2709 52.358 16.9548 51.035 16.9548C49.4122 16.9566 48.7516 15.9783 48.7516 14.1778ZM45.1219 28.2174L44.666 25.8245C44.1634 25.5516 43.3196 25.347 42.3161 25.347C40.4457 25.347 39.146 26.6036 39.146 29.0162C39.146 31.8417 40.81 33.2096 43.2963 33.2096C44.4178 33.1876 45.5279 32.9795 46.5813 32.5938V34.2095C45.8292 34.6637 43.9587 35.1878 42.2246 35.1878C38.4854 35.1878 36.6598 33.1378 36.6598 29.946C36.6598 26.1853 39.3291 23.3832 43.1366 23.3832C44.5726 23.3832 45.9423 23.7924 46.8093 24.3399C46.7884 25.5875 46.6587 26.8308 46.4216 28.0558L45.1219 28.2174ZM41.5317 16.9585C40.9393 16.9585 40.6431 16.5994 40.6431 15.9783C40.6431 15.2728 41.6232 11.3972 41.6232 11.3972H41.3719C39.5768 15.3626 38.2467 16.962 36.5144 16.962C35.0316 16.962 33.8001 15.4344 33.8001 13.1797C33.8001 8.98632 37.0314 5.15735 40.4152 5.15735C41.0563 5.15214 41.692 5.27417 42.2856 5.51638C42.4643 5.158 42.7406 4.85743 43.0827 4.64934L44.6444 4.94733L43.1401 14.5206L43.3196 14.7253H45.2817V15.6372C44.5224 16.0465 42.3556 16.9566 41.5335 16.9566L41.5317 16.9585ZM39.5696 6.81604C37.7225 6.81604 36.491 9.5087 36.491 12.1044C36.491 13.79 36.9255 14.7971 37.7691 14.7971C38.4298 14.7971 40.3236 11.6521 41.783 7.36716C41.214 6.99914 40.2105 6.81604 39.5714 6.81604H39.5696ZM32.8362 32.7536L33.0157 32.9582H34.9778V33.8702C34.2238 34.2813 32.0571 35.1914 31.2367 35.1914C30.6425 35.1914 30.3392 34.8324 30.3392 34.2131C30.3392 33.5058 31.3211 29.6319 31.3211 29.6319H31.0698C29.2747 33.5973 27.9445 35.1968 26.2105 35.1968C24.7295 35.1968 23.4962 33.6709 23.4962 31.4145C23.4962 27.2211 26.7364 23.3921 30.1112 23.3921C30.7522 23.3877 31.3879 23.5097 31.9817 23.7512C32.1646 23.389 32.4474 23.0868 32.7967 22.8805L34.3476 23.1767L32.8362 32.7536ZM29.2782 25.0508C27.4311 25.0508 26.1996 27.7434 26.1996 30.3374C26.1996 32.0248 26.6323 33.03 27.476 33.03C28.1384 33.03 30.0305 29.8851 31.4916 25.6001C30.9208 25.2321 29.9245 25.0508 29.2782 25.0508ZM25.0131 12.1098C25.0813 14.0234 25.9107 14.9587 27.3629 14.9587C28.343 14.9587 29.4829 14.3896 30.4648 13.7272L30.989 14.6858C29.9389 15.7629 27.8637 16.9638 25.9034 16.9638C23.7816 16.9638 22.3437 15.4829 22.3437 12.7471C22.3437 8.66856 25.5839 5.15915 29.2334 5.15915C31.1488 5.15915 32.0373 6.13749 32.0373 7.50533C32.0373 10.1891 28.7074 11.5569 25.0131 12.1098ZM28.0235 6.8681C26.6789 6.8681 25.3559 8.60035 25.0131 10.9017C27.7507 10.4691 29.2782 9.32919 29.2782 8.02954C29.2782 7.272 28.8223 6.86272 28.0235 6.86272V6.8681ZM22.2792 26.2858H21.202C20.674 26.2768 20.1513 26.3918 19.6759 26.6215C19.2004 26.8514 18.7855 27.1895 18.4645 27.6088V33.3065C19.2748 33.3639 20.0733 33.5324 20.8377 33.8074V34.9472H14.2478V33.784C14.7983 33.5612 15.3722 33.4011 15.9585 33.3065V26.0076C15.3326 25.8829 14.7459 25.6095 14.2478 25.2105V24.313L17.8739 23.4244H18.3532L18.1737 26.3415H18.3101C19.1538 24.3363 20.1806 23.4478 21.7083 23.4478C22.0448 23.4339 22.3803 23.4952 22.6902 23.6273L22.2792 26.2858ZM19.6349 8.04751C19.1072 8.03853 18.5846 8.1534 18.1092 8.38281C17.6338 8.61228 17.2187 8.94989 16.8974 9.3687V15.0664C17.707 15.1254 18.5048 15.2945 19.2687 15.569V16.7089H12.6771V15.5457C13.2279 15.3232 13.8016 15.1624 14.3878 15.0664V7.77467C13.7618 7.6494 13.175 7.37537 12.6771 6.9758V6.08723L16.305 5.19865H16.7825L16.603 8.11572H16.7394C17.5831 6.11056 18.6099 5.22199 20.1375 5.22199C20.4741 5.20897 20.8093 5.27025 21.1195 5.40149L20.7084 8.04568L19.6349 8.04751ZM6.38701 35.238C5.6794 35.2425 4.97909 35.0949 4.3334 34.8054V38.0869C5.01224 38.1653 5.67897 38.3262 6.31879 38.5662V39.7276H0V38.5662C0.555124 38.3328 1.13792 38.1718 1.73408 38.0869V26.0076C1.16324 25.8927 0.387742 25.5516 0.0233346 25.2105V24.313L3.71588 23.4316H4.17184V24.891C4.90245 24.4351 6.43009 23.3867 8.36884 23.3867C10.6738 23.3867 12.4527 25.0023 12.4527 28.4238C12.4545 32.7536 9.74028 35.238 6.38701 35.238ZM6.61498 25.4601C5.81666 25.4833 5.03503 25.6942 4.3334 26.0758V32.5938C5.12488 33.0704 6.03411 33.3154 6.95785 33.3011C8.91811 33.3011 9.96828 32.1379 9.96828 29.6086C9.96828 26.9195 8.56267 25.4601 6.61498 25.4601ZM8.62189 9.98442L8.16597 7.59151C7.6633 7.31867 6.81963 7.11221 5.81616 7.11221C3.94566 7.11221 2.64599 8.36884 2.64599 10.7832C2.64599 13.6088 4.31186 14.9766 6.79808 14.9766C7.91902 14.9545 9.02856 14.7464 10.0813 14.3609V15.9765C9.32919 16.4325 7.45867 16.9566 5.72461 16.9566C1.9854 16.9566 0.159765 14.9048 0.159765 11.7149C0.159765 7.95418 2.82909 5.15197 6.63832 5.15197C8.07439 5.15197 9.44232 5.56126 10.3093 6.10877C10.2885 7.35572 10.1587 8.59846 9.92161 9.82288L8.62189 9.98442ZM60.1129 19.8988L62.0875 17.9242L64.0622 19.8988L62.0875 21.8735L60.1129 19.8988ZM62.1808 23.3867C62.8433 23.3867 63.1394 23.8194 63.1394 24.5033C63.1394 24.7313 63.0928 25.0723 63.0712 25.3003L61.8613 32.7303C61.9263 32.802 61.9863 32.8782 62.0408 32.9582H63.9114V33.8468C62.8612 34.4177 60.7627 35.1914 59.9872 35.1914C59.35 35.1914 59.0305 34.7821 59.0305 34.0982C59.0305 33.8935 59.0987 33.5058 59.122 33.3011L60.3301 25.8712L60.1506 25.6432H58.2873V24.7546C59.3302 24.1622 61.4521 23.3867 62.1808 23.3867ZM72.0828 23.3867C73.5186 23.3867 74.8884 23.796 75.7558 24.3435C75.7347 25.5911 75.6049 26.8344 75.3677 28.0594L74.0681 28.2174L73.6105 25.8245C73.1095 25.5516 72.266 25.347 71.2625 25.347C69.3919 25.347 68.0904 26.6036 68.0904 29.0162C68.0904 31.8417 69.7562 33.2096 72.2428 33.2096C73.3642 33.1874 74.4744 32.9794 75.5277 32.5938V34.2095C74.7733 34.6637 72.9032 35.1878 71.1705 35.1878C67.4298 35.1878 65.606 33.1378 65.606 29.946C65.606 26.1889 68.2735 23.3867 72.0828 23.3867Z" fill="white"/>
</svg>
