<svg width="16" height="14" viewBox="0 0 16 14" fill="none" xmlns="http://www.w3.org/2000/svg">
<path d="M0.980919 6.09704L10.5116 1.9416C11.4524 1.50874 14.6429 0.123597 14.6429 0.123597C14.6429 0.123597 16.1154 -0.482405 15.9927 0.989313C15.9518 1.59531 15.6246 3.71632 15.2974 6.01047L14.2748 12.8063C14.2748 12.8063 14.193 13.8019 13.4976 13.9751C12.8022 14.1482 11.6569 13.3691 11.4524 13.1959C11.2888 13.0661 8.38457 11.1182 7.32106 10.1659C7.03473 9.9062 6.7075 9.38677 7.36196 8.78076C8.83451 7.35233 10.5934 5.57761 11.6569 4.45218C12.1477 3.93275 12.6386 2.72075 10.5934 4.19246L4.82591 8.30462C4.82591 8.30462 4.17144 8.73748 2.94432 8.34791C1.71719 7.95833 0.285549 7.4389 0.285549 7.4389C0.285549 7.4389 -0.69615 6.78961 0.980919 6.09704Z" fill="white"/>
</svg>
