<svg width="13" height="13" viewBox="0 0 13 13" fill="none" xmlns="http://www.w3.org/2000/svg">
<path d="M12.5 5.50003H5.29998L12.2562 3.63753C12.3195 3.61989 12.3787 3.5898 12.4302 3.54902C12.4817 3.50824 12.5245 3.45759 12.5562 3.40003C12.5902 3.34443 12.6121 3.28236 12.6207 3.2178C12.6294 3.15323 12.6244 3.08758 12.6062 3.02503L12.0875 1.09378C12.0548 0.966784 11.9972 0.847559 11.918 0.743061C11.8388 0.638563 11.7396 0.550885 11.6262 0.485142C11.5127 0.4194 11.3873 0.376909 11.2573 0.36015C11.1272 0.343391 10.9951 0.352699 10.8687 0.38753L1.20623 2.97503C1.07899 3.00837 0.959642 3.06663 0.855094 3.14645C0.750546 3.22626 0.662883 3.32604 0.597187 3.43999C0.531492 3.55394 0.489071 3.67979 0.472385 3.81026C0.455698 3.94073 0.465079 4.07321 0.499982 4.20003L0.999982 6.06878V11.5C0.999982 11.7652 1.10534 12.0196 1.29287 12.2071C1.48041 12.3947 1.73477 12.5 1.99998 12.5H12C12.2652 12.5 12.5196 12.3947 12.7071 12.2071C12.8946 12.0196 13 11.7652 13 11.5V6.00003C13 5.86742 12.9473 5.74025 12.8535 5.64648C12.7598 5.55271 12.6326 5.50003 12.5 5.50003ZM9.58123 3.31878L5.23123 4.48128L3.39998 3.41878L7.74373 2.25628L9.58123 3.31878ZM12 11.5H1.99998V6.50003H12V11.5Z" fill="#FFE873"/>
</svg>
