<svg width="14" height="14" viewBox="0 0 14 14" fill="none" xmlns="http://www.w3.org/2000/svg">
<path fill-rule="evenodd" clip-rule="evenodd" d="M7 0C8.90111 0 9.13946 0.00798255 9.88618 0.0420134C10.6312 0.0760443 11.14 0.194382 11.5853 0.367478C12.0457 0.546315 12.436 0.785651 12.8252 1.17484C13.2143 1.56402 13.4537 1.95433 13.6325 2.41465C13.8056 2.86 13.924 3.36878 13.958 4.11382C13.992 4.86054 14 5.09889 14 7C14 8.90111 13.992 9.13946 13.958 9.88604C13.924 10.6311 13.8056 11.14 13.6325 11.5852C13.4537 12.0455 13.2143 12.436 12.8252 12.8252C12.436 13.2143 12.0457 13.4535 11.5853 13.6325C11.14 13.8056 10.6312 13.9238 9.88618 13.9578C9.13946 13.9919 8.90111 14 7 14C5.09889 14 4.86054 13.9919 4.11396 13.958C3.36892 13.924 2.86 13.8056 2.41479 13.6325C1.95447 13.4535 1.56402 13.2143 1.17484 12.8252C0.785651 12.4358 0.546315 12.0455 0.367478 11.5852C0.194382 11.14 0.0761844 10.6311 0.0421535 9.88604C0.00798256 9.13946 0 8.90111 0 7C0 5.09889 0.00784251 4.86054 0.0420134 4.11382C0.0760443 3.36878 0.194242 2.86 0.367338 2.41465C0.546315 1.95433 0.785651 1.56402 1.17498 1.17484C1.5643 0.785651 1.95461 0.546315 2.41493 0.367478C2.86014 0.194382 3.36878 0.0760443 4.11396 0.0420134C4.86054 0.00798255 5.09889 0 7 0ZM7 1.26124C5.13096 1.26124 4.90955 1.26825 4.17137 1.302C3.48894 1.33309 3.11824 1.44722 2.87162 1.54301C2.54489 1.67003 2.31172 1.8217 2.06678 2.06678C1.8217 2.31158 1.67003 2.54475 1.54301 2.87162C1.44722 3.1181 1.33323 3.4888 1.30214 4.17123C1.26839 4.90955 1.26124 5.13082 1.26124 7C1.26124 8.86904 1.26839 9.09045 1.30214 9.82862C1.33323 10.5111 1.44722 10.8818 1.54301 11.1284C1.67003 11.4551 1.8217 11.6883 2.06678 11.9332C2.31172 12.1783 2.54489 12.33 2.87162 12.457C3.11824 12.5528 3.48894 12.6668 4.17137 12.6979C4.90941 12.7315 5.13068 12.7388 7 12.7388C8.86932 12.7388 9.09059 12.7316 9.82862 12.6979C10.5111 12.6668 10.8818 12.5528 11.1284 12.457C11.4552 12.33 11.6884 12.1783 11.9334 11.9332C12.1783 11.6883 12.33 11.4551 12.457 11.1284C12.5528 10.8818 12.6669 10.5111 12.6979 9.82862C12.7316 9.09059 12.7388 8.86904 12.7388 7C12.7388 5.13082 12.7318 4.90955 12.698 4.17137C12.6669 3.4888 12.5528 3.11824 12.457 2.87162C12.33 2.54475 12.1783 2.31158 11.9332 2.06664C11.6884 1.8217 11.4552 1.67003 11.1284 1.54301C10.8819 1.44722 10.5111 1.33309 9.82862 1.302C9.09059 1.26839 8.86918 1.26124 7 1.26124ZM7.00224 3.42802C8.97379 3.42802 10.572 5.02621 10.572 6.99776C10.572 8.96931 8.97379 10.5675 7.00224 10.5675C5.03069 10.5675 3.4325 8.96931 3.4325 6.99776C3.4325 5.02621 5.03069 3.42802 7.00224 3.42802ZM7.00224 9.31494C8.28197 9.31494 9.31942 8.27749 9.31942 6.99776C9.31942 5.71803 8.28197 4.68058 7.00224 4.68058C5.72251 4.68058 4.68506 5.71803 4.68506 6.99776C4.68506 8.27749 5.72251 9.31494 7.00224 9.31494ZM11.5331 3.22215C11.5331 3.71511 11.1642 4.11466 10.7094 4.11466C10.2542 4.11466 9.88548 3.71511 9.88548 3.22215C9.88548 2.72919 10.2544 2.32979 10.7094 2.32979C11.1642 2.32979 11.5331 2.72933 11.5331 3.22215Z" fill="white"/>
</svg>
